<svg width="16" height="16" viewBox="0 0 16 16" fill="none" xmlns="http://www.w3.org/2000/svg">
    <path d="M13.3333 6.66683C13.3333 9.9955 9.64066 13.4622 8.40066 14.5328C8.28515 14.6197 8.14453 14.6667 8 14.6667C7.85547 14.6667 7.71485 14.6197 7.59933 14.5328C6.35933 13.4622 2.66666 9.9955 2.66666 6.66683C2.66666 5.25234 3.22857 3.89579 4.22876 2.89559C5.22896 1.8954 6.58551 1.3335 8 1.3335C9.41449 1.3335 10.771 1.8954 11.7712 2.89559C12.7714 3.89579 13.3333 5.25234 13.3333 6.66683Z" stroke="#F16122" stroke-width="1.33333" stroke-linecap="round" stroke-linejoin="round"/>
    <path d="M8 8.6665C9.10457 8.6665 10 7.77107 10 6.6665C10 5.56193 9.10457 4.6665 8 4.6665C6.89543 4.6665 6 5.56193 6 6.6665C6 7.77107 6.89543 8.6665 8 8.6665Z" stroke="#F16122" stroke-width="1.33333" stroke-linecap="round" stroke-linejoin="round"/>
</svg>
