<svg width="16" height="16" viewBox="0 0 16 16" fill="none" xmlns="http://www.w3.org/2000/svg">
    <mask id="mask0_14_73" style="mask-type:alpha" maskUnits="userSpaceOnUse" x="0" y="0" width="16" height="16">
        <rect width="16" height="16" fill="#D9D9D9"/>
    </mask>
    <g mask="url(#mask0_14_73)">
        <path d="M2.26678 10.933L0.733447 9.43301C0.600114 9.29967 0.533447 9.14412 0.533447 8.96634C0.533447 8.78856 0.600114 8.63301 0.733447 8.49967C1.71123 7.44412 2.839 6.65245 4.11678 6.12467C5.39456 5.5969 6.689 5.33301 8.00011 5.33301C9.31122 5.33301 10.6029 5.5969 11.8751 6.12467C13.1473 6.65245 14.2779 7.44412 15.2668 8.49967C15.4001 8.63301 15.4668 8.78856 15.4668 8.96634C15.4668 9.14412 15.4001 9.29967 15.2668 9.43301L13.7334 10.933C13.6112 11.0552 13.4696 11.1219 13.3084 11.133C13.1473 11.1441 13.0001 11.0997 12.8668 10.9997L10.9334 9.53301C10.8446 9.46634 10.7779 9.38856 10.7334 9.29967C10.689 9.21079 10.6668 9.11079 10.6668 8.99967V7.09967C10.2446 6.96634 9.81122 6.86079 9.36678 6.78301C8.92234 6.70523 8.46678 6.66634 8.00011 6.66634C7.53345 6.66634 7.07789 6.70523 6.63345 6.78301C6.189 6.86079 5.75567 6.96634 5.33345 7.09967V8.99967C5.33345 9.11079 5.31122 9.21079 5.26678 9.29967C5.22234 9.38856 5.15567 9.46634 5.06678 9.53301L3.13345 10.9997C3.00011 11.0997 2.85289 11.1441 2.69178 11.133C2.53067 11.1219 2.389 11.0552 2.26678 10.933ZM4.00011 7.63301C3.67789 7.79967 3.36678 7.99134 3.06678 8.20801C2.76678 8.42467 2.45567 8.66634 2.13345 8.93301L2.80011 9.59967L4.00011 8.66634V7.63301ZM12.0001 7.66634V8.66634L13.2001 9.59967L13.8668 8.96634C13.5446 8.67745 13.2334 8.42745 12.9334 8.21634C12.6334 8.00523 12.3223 7.8219 12.0001 7.66634Z" fill="white"/>
    </g>
</svg>
