<svg width="14" height="14" viewBox="0 0 14 14" fill="none" xmlns="http://www.w3.org/2000/svg">
    <mask id="mask0_49_111" style="mask-type:alpha" maskUnits="userSpaceOnUse" x="0" y="0" width="14" height="14">
        <rect width="14" height="14" fill="#D9D9D9"/>
    </mask>
    <g mask="url(#mask0_49_111)">
        <path d="M11.725 9.88783C11.8903 9.97533 12.0362 9.95588 12.1625 9.82949C12.2889 9.7031 12.3084 9.55727 12.2209 9.39199L11.375 7.81699L10.7625 9.39199L11.725 9.88783ZM8.80837 9.33366H9.50837L10.9084 5.86283C10.9375 5.78505 10.9302 5.71942 10.8865 5.66595C10.8427 5.61248 10.7917 5.57116 10.7334 5.54199L9.56671 5.07533C9.47921 5.04616 9.39414 5.05588 9.3115 5.10449C9.22886 5.1531 9.17782 5.22116 9.15837 5.30866L8.80837 9.33366ZM4.49171 9.33366H5.19171L4.84171 5.30866C4.82226 5.20171 4.77122 5.1288 4.68858 5.08991C4.60594 5.05102 4.52087 5.04616 4.43337 5.07533L3.26671 5.54199C3.18893 5.57116 3.13303 5.61248 3.099 5.66595C3.06497 5.71942 3.06254 5.78505 3.09171 5.86283L4.49171 9.33366ZM2.27504 9.88783L3.23754 9.39199L2.62504 7.81699L1.77921 9.39199C1.69171 9.55727 1.71115 9.7031 1.83754 9.82949C1.96393 9.95588 2.10976 9.97533 2.27504 9.88783ZM6.35837 9.33366H7.64171L8.07921 4.40449C8.09865 4.31699 8.07678 4.24165 8.01358 4.17845C7.95039 4.11526 7.87504 4.08366 7.78754 4.08366H6.21254C6.13476 4.08366 6.06428 4.11526 6.00108 4.17845C5.93789 4.24165 5.91115 4.31699 5.92087 4.40449L6.35837 9.33366ZM2.01254 11.0837C1.60421 11.0837 1.26393 10.9305 0.991707 10.6243C0.719485 10.318 0.583374 9.95588 0.583374 9.53783C0.583374 9.42116 0.600388 9.30692 0.634416 9.19512C0.668443 9.08331 0.709763 8.97394 0.758374 8.86699L2.04171 6.41699C1.9056 6.0281 1.91046 5.64408 2.05629 5.26491C2.20212 4.88574 2.45976 4.61838 2.82921 4.46283L3.99587 3.99616C4.13198 3.94755 4.2681 3.91352 4.40421 3.89408C4.54032 3.87463 4.67643 3.87949 4.81254 3.90866C4.94865 3.62671 5.13824 3.39095 5.38129 3.20137C5.62435 3.01178 5.90143 2.91699 6.21254 2.91699H7.78754C8.09865 2.91699 8.37574 3.01178 8.61879 3.20137C8.86185 3.39095 9.05143 3.62671 9.18754 3.90866C9.32365 3.88921 9.45976 3.88678 9.59587 3.90137C9.73199 3.91595 9.8681 3.94755 10.0042 3.99616L11.1709 4.46283C11.5598 4.61838 11.832 4.88574 11.9875 5.26491C12.1431 5.64408 12.1334 6.01838 11.9584 6.38783L13.2417 8.83783C13.3 8.94477 13.3438 9.05658 13.373 9.17324C13.4021 9.28991 13.4167 9.41144 13.4167 9.53783C13.4167 9.97533 13.2684 10.3423 12.9719 10.6389C12.6754 10.9354 12.3084 11.0837 11.8709 11.0837C11.7639 11.0837 11.657 11.0715 11.55 11.0472C11.4431 11.0229 11.3362 10.9864 11.2292 10.9378L10.325 10.5003H3.64587L2.82921 10.9378C2.70282 11.0059 2.56914 11.0472 2.42817 11.0618C2.28719 11.0764 2.14865 11.0837 2.01254 11.0837Z" fill="#F16122"/>
    </g>
</svg>
