<svg width="14" height="14" viewBox="0 0 14 14" fill="none" xmlns="http://www.w3.org/2000/svg">
    <mask id="mask0_49_207" style="mask-type:alpha" maskUnits="userSpaceOnUse" x="0" y="0" width="14" height="14">
        <rect width="14" height="14" fill="#D9D9D9"/>
    </mask>
    <g mask="url(#mask0_49_207)">
        <path d="M2.33341 11.6663C2.01258 11.6663 1.73793 11.5521 1.50946 11.3236C1.28098 11.0952 1.16675 10.8205 1.16675 10.4997V3.49967C1.16675 3.17884 1.28098 2.90419 1.50946 2.67572C1.73793 2.44724 2.01258 2.33301 2.33341 2.33301H11.6667C11.9876 2.33301 12.2622 2.44724 12.4907 2.67572C12.7192 2.90419 12.8334 3.17884 12.8334 3.49967V10.4997C12.8334 10.8205 12.7192 11.0952 12.4907 11.3236C12.2622 11.5521 11.9876 11.6663 11.6667 11.6663H2.33341ZM7.00008 7.58301L11.6667 4.66634V3.49967L7.00008 6.41634L2.33341 3.49967V4.66634L7.00008 7.58301Z" fill="#F16122"/>
    </g>
</svg>
