<svg width="32" height="32" viewBox="0 0 32 32" fill="none" xmlns="http://www.w3.org/2000/svg">
    <rect width="32" height="32" rx="16" fill="#F2F2F2"/>
    <mask id="mask0_34_26" style="mask-type:alpha" maskUnits="userSpaceOnUse" x="9" y="9" width="14" height="14">
        <rect x="9.14282" y="9.14258" width="13.7143" height="13.7143" fill="#D9D9D9"/>
    </mask>
    <g mask="url(#mask0_34_26)">
        <path d="M12.4 19.4284L13.7143 17.1427C13.0857 17.1427 12.5476 16.9189 12.1 16.4713C11.6524 16.0237 11.4286 15.4856 11.4286 14.857C11.4286 14.2284 11.6524 13.6903 12.1 13.2427C12.5476 12.7951 13.0857 12.5713 13.7143 12.5713C14.3429 12.5713 14.881 12.7951 15.3286 13.2427C15.7762 13.6903 16 14.2284 16 14.857C16 15.0761 15.9738 15.2784 15.9214 15.4641C15.8691 15.6499 15.7905 15.8284 15.6857 15.9999L13.7143 19.4284H12.4ZM17.5429 19.4284L18.8572 17.1427C18.2286 17.1427 17.6905 16.9189 17.2429 16.4713C16.7953 16.0237 16.5714 15.4856 16.5714 14.857C16.5714 14.2284 16.7953 13.6903 17.2429 13.2427C17.6905 12.7951 18.2286 12.5713 18.8572 12.5713C19.4857 12.5713 20.0238 12.7951 20.4714 13.2427C20.9191 13.6903 21.1429 14.2284 21.1429 14.857C21.1429 15.0761 21.1167 15.2784 21.0643 15.4641C21.0119 15.6499 20.9334 15.8284 20.8286 15.9999L18.8572 19.4284H17.5429ZM13.7143 15.7141C13.9524 15.7141 14.1548 15.6308 14.3214 15.4641C14.4881 15.2975 14.5714 15.0951 14.5714 14.857C14.5714 14.6189 14.4881 14.4165 14.3214 14.2499C14.1548 14.0832 13.9524 13.9999 13.7143 13.9999C13.4762 13.9999 13.2738 14.0832 13.1072 14.2499C12.9405 14.4165 12.8572 14.6189 12.8572 14.857C12.8572 15.0951 12.9405 15.2975 13.1072 15.4641C13.2738 15.6308 13.4762 15.7141 13.7143 15.7141ZM18.8572 15.7141C19.0953 15.7141 19.2976 15.6308 19.4643 15.4641C19.631 15.2975 19.7143 15.0951 19.7143 14.857C19.7143 14.6189 19.631 14.4165 19.4643 14.2499C19.2976 14.0832 19.0953 13.9999 18.8572 13.9999C18.6191 13.9999 18.4167 14.0832 18.25 14.2499C18.0834 14.4165 18 14.6189 18 14.857C18 15.0951 18.0834 15.2975 18.25 15.4641C18.4167 15.6308 18.6191 15.7141 18.8572 15.7141Z" fill="#AEAEAE"/>
    </g>
</svg>
