<svg width="468" height="62" viewBox="0 0 468 62" fill="none" xmlns="http://www.w3.org/2000/svg">
    <g clip-path="url(#clip0_310_430)">
        <path d="M11.0829 0.74735C11.2734 0.727957 11.5154 0.724683 11.7049 0.743406C12.5355 0.828792 13.2974 1.24337 13.8201 1.89451C14.7014 2.97549 14.6447 3.98695 14.5128 5.26377L18.5324 6.99553C18.797 7.11173 19.165 7.34169 19.4139 7.42503C20.1308 7.66506 20.7857 7.97842 21.4785 8.26776C21.563 8.17593 21.6486 8.08515 21.7352 7.99537C23.4043 6.27479 25.7589 5.3425 28.1002 5.0161C29.02 4.88786 29.8022 4.81954 30.7373 4.88692C31.1498 4.91663 31.6076 4.85338 32.0292 4.91222C33.0363 5.07189 34.0843 5.22374 35.0751 5.46383C37.07 5.94726 38.5343 7.06572 39.9536 8.45729L44.2267 6.62208C45.1613 6.22596 46.2525 5.79912 47.1565 5.33385C47.1029 5.10363 47.0501 4.88182 47.0309 4.64573C46.9067 3.12894 47.7085 1.53367 49.1959 1.02605C49.982 0.758458 50.8418 0.814721 51.5861 1.18242C53.2418 2.00557 54.0528 4.28825 53.2261 5.94475C53.9982 6.38036 54.3707 6.64578 54.867 7.41434C55.3793 8.20731 55.5028 9.48345 55.2667 10.386C55.0332 11.2476 54.4702 11.9827 53.6993 12.4325C52.7422 12.9936 51.3846 12.9374 50.4756 12.299C49.907 11.8999 49.5926 11.494 49.2531 10.9014C48.595 11.2137 47.8937 11.4994 47.222 11.7883C46.4211 12.1401 45.6181 12.4874 44.8131 12.8302C44.0961 13.1316 43.0229 13.5648 42.3568 13.9102C42.5222 14.9421 42.5005 16.2486 42.491 17.2908C43.0445 17.5931 43.8925 17.9135 44.4931 18.1771L49.2575 20.2368C49.5168 19.739 50.0338 19.1364 50.5091 18.8271C51.1994 18.3795 52.0388 18.2233 52.8442 18.3925C53.667 18.5716 54.3828 19.0745 54.8302 19.7877C55.5165 20.8827 55.5748 22.3343 54.9932 23.4814C54.5446 24.3663 54.0522 24.7026 53.2368 25.193C53.4919 25.7744 53.5689 27.0021 53.3997 27.6003C52.126 32.107 46.1331 30.5867 47.1586 25.7931C46.563 25.5585 45.926 25.2618 45.3313 25.0051C44.1787 24.5077 42.998 24.0259 41.8632 23.4938C41.1933 24.4358 40.5951 24.6606 39.526 25.0123C38.7086 25.2501 37.9557 25.2908 37.1231 25.416C36.7758 25.4682 36.3723 25.5109 36.0434 25.6314C35.777 26.0601 35.5101 27.755 35.7021 28.2578C35.8315 28.5974 36.212 29.1586 36.3853 29.5853C36.473 29.5265 36.5643 29.4734 36.6588 29.4265C37.0286 29.2441 37.6132 29.2122 38.006 29.3505C38.3616 29.4757 38.5468 29.7621 38.692 30.0872C40.5586 29.5904 40.2442 30.9248 40.2605 32.2045C40.2668 32.6818 40.3328 33.4154 39.7731 33.6267C39.4914 33.7328 38.9924 33.7111 38.716 33.5932C38.5136 33.9049 38.2908 34.2625 37.9047 34.3547C37.3029 34.4981 36.9041 34.3769 36.3966 34.0853C36.3 34.3019 36.166 34.5864 36.052 34.789C35.2564 36.1724 33.9507 37.189 32.4147 37.6216C30.4188 38.1748 27.9502 37.573 26.5433 36.0602C26.0951 35.5781 25.4193 34.7176 25.2453 34.0797C24.4302 34.5523 23.3913 34.6394 22.9767 33.6062C21.162 33.9668 21.3775 33.0655 21.3537 31.7411C21.3283 30.3357 21.4005 29.7571 23.0017 30.0886C23.2702 29.0571 24.5362 29.1082 25.2398 29.6131C25.2828 29.4752 25.3499 29.351 25.4112 29.2208C25.7458 28.5106 25.4769 26.3847 25.2091 25.6417C23.3053 25.0549 21.1857 25.4841 19.5636 23.7473C17.9647 24.2972 16.141 25.2562 14.5087 25.8644C14.5193 26.0582 14.5418 26.2732 14.5685 26.4661C14.7607 27.8511 14.1721 29.2901 12.9292 30.0042C12.2272 30.4051 11.394 30.5085 10.6154 30.2913C9.8164 30.0682 9.46526 29.7414 8.9687 29.1053C8.82814 28.9157 8.59978 28.7025 8.50138 28.4872C8.03898 27.4752 8.08494 26.3193 8.3743 25.2823C6.62519 24.3489 5.90317 22.6879 6.40839 20.7637C6.82806 19.1653 8.77842 18.0884 10.3512 18.5718C11.2697 18.8541 11.9294 19.5182 12.3822 20.3464C12.6172 20.25 12.8618 20.1243 13.1006 20.0222C14.0537 19.6186 15.0044 19.2094 15.9527 18.7947C16.8351 18.4121 17.7878 18.0437 18.6406 17.6098C18.5033 16.443 18.6759 14.7434 18.7898 13.5772C17.5052 13.0376 16.2173 12.4372 14.928 11.9002C14.647 11.7831 14.3065 11.5522 14.0649 11.4546C13.5488 11.2461 12.8682 10.9705 12.3431 10.8242C12.1339 11.3091 11.5587 11.9903 11.1001 12.2249C8.21641 13.7004 5.77518 11.3115 6.38196 8.34136C6.60975 7.22628 7.47925 6.36451 8.39614 5.84436C8.29934 5.59527 8.22423 5.33826 8.17161 5.07625C8.00467 4.20653 8.22129 2.95237 8.74873 2.22347C9.3873 1.34102 10.0286 0.945547 11.0829 0.74735Z" fill="#0F0F0F"/>
        <path d="M29.7524 5.64229C30.2413 5.59074 31.3181 5.6209 31.8111 5.66585C34.8715 5.94504 37.4967 6.84705 39.5319 9.24339C41.9713 12.0299 41.8472 15.9204 41.545 19.3831C41.4721 20.2191 41.489 22.4744 41.0922 23.1316C40.3947 24.2866 38.099 24.4579 36.8804 24.6378C36.4425 24.7025 35.8484 24.7385 35.4884 25.044C35.0043 25.4837 34.9035 26.7653 34.8543 27.3996C33.9133 26.3909 32.398 25.9158 31.0511 25.8619C30.8671 25.8567 30.6828 25.8555 30.4988 25.8585C28.8353 25.8962 27.4732 26.6188 26.3479 27.8041C26.3311 27.5122 26.3122 27.2204 26.2913 26.9288C26.2403 26.2569 26.1581 25.4481 25.6243 24.9622C25.0848 24.4712 21.7894 24.6497 20.4715 23.4975C20.2413 23.2962 20.0482 23.0427 19.9538 22.7491C19.7914 22.2442 19.7941 21.6189 19.7399 21.0873C19.6562 20.2659 19.5536 19.4411 19.4997 18.6174C19.2754 15.191 19.3481 11.8715 21.7472 9.15128C23.8555 6.76065 26.6427 5.84113 29.7524 5.64229Z" fill="white"/>
        <path d="M26.1246 15.5363C26.382 15.5085 26.6618 15.5095 26.9183 15.5432C29.2264 15.8448 29.7537 18.1658 29.4264 20.1413C29.104 22.0876 27.4997 23.2982 25.5554 23.2011C24.8699 23.1218 24.2217 22.9412 23.6642 22.526C22.0673 21.3368 21.6031 19.1591 22.8026 17.5291C23.6028 16.4516 24.7973 15.7351 26.1246 15.5363Z" fill="#0F0F0F"/>
        <path d="M34.4197 15.5369C36.2878 15.4541 38.518 16.9627 38.923 18.8363C39.3414 20.7715 38.025 22.6646 36.0964 23.104C33.8449 23.5805 31.8552 22.1163 31.6229 19.8128C31.4117 17.7181 32.0736 15.7733 34.4197 15.5369Z" fill="#0F0F0F"/>
        <path d="M30.3898 26.6559C33.2452 26.4181 35.7542 28.5366 35.998 31.3914C36.2422 34.2465 34.129 36.76 31.2745 37.0104C28.4115 37.2613 25.8885 35.1402 25.6438 32.2765C25.399 29.4129 27.5255 26.8945 30.3898 26.6559Z" fill="white"/>
        <path d="M30.4016 28.5985C32.2087 28.3619 33.8629 29.6414 34.0884 31.4496C34.3139 33.2582 33.0244 34.9044 31.2146 35.119C29.4204 35.3314 27.7914 34.0553 27.5679 32.2627C27.3444 30.4698 28.6104 28.833 30.4016 28.5985Z" fill="#F26223"/>
        <path d="M49.9573 1.54956C51.4998 1.44971 52.6927 2.69466 52.8086 4.18713C52.8838 5.15596 52.6441 5.61998 52.1635 6.41776C52.8592 6.53705 53.4281 6.80013 53.9114 7.33174C54.488 7.9611 54.7164 8.75688 54.6758 9.59922C54.6263 10.5504 54.157 11.351 53.3259 11.8202C52.1209 12.5003 50.7988 11.9954 50.0735 10.8879C49.9105 10.639 49.795 10.3097 49.605 10.084C49.3567 10.0307 48.3443 10.5245 48.0788 10.64L46.0068 11.5363C44.7523 12.0656 43.5037 12.6082 42.2608 13.164C41.8949 11.3863 41.4329 10.4987 40.4418 9.03042C40.9775 8.7765 41.5953 8.53229 42.1473 8.2928L45.9378 6.6545C46.3888 6.45992 47.6827 5.946 48.0362 5.71607C47.2208 4.06589 48.0329 1.79052 49.9573 1.54956Z" fill="white"/>
        <path d="M11.3853 1.46436C12.3108 1.46952 13.031 1.87871 13.5133 2.69821C14.1115 3.71468 13.9445 4.60955 13.6626 5.69375C14.2465 5.8872 14.8197 6.18409 15.3839 6.37479C16.3513 6.70178 17.1165 6.93146 17.974 7.50645C18.3301 7.74524 19.1043 7.98867 19.5076 8.18832C19.9061 8.38559 20.5364 8.66452 20.9634 8.77851C20.0812 9.90197 19.2345 11.4156 18.9786 12.8314C18.5461 12.7129 17.9406 12.4308 17.5184 12.246C16.8494 11.9509 16.1784 11.6601 15.5055 11.3737C14.6508 11.042 13.8311 10.6033 12.9542 10.3298C12.6108 10.2228 12.2652 10.112 11.9331 9.97411C11.4762 11.3128 10.2423 12.3835 8.76478 11.9294C6.29374 11.1699 6.39709 7.48396 8.66517 6.5381C8.82872 6.4699 9.40217 6.34231 9.43882 6.22492C8.1393 4.68884 8.91189 1.91054 10.9691 1.49772C11.09 1.47345 11.2592 1.4709 11.3853 1.46436Z" fill="white"/>
        <path d="M42.4611 18.0698C44.8302 19.1496 47.301 20.1142 49.6658 21.195C49.8989 20.243 50.6347 19.3838 51.5866 19.1073C52.9126 18.7223 54.1828 19.6089 54.5582 20.8803C54.7869 21.68 54.6942 22.5374 54.2992 23.2695C53.7715 24.2357 53.1309 24.4631 52.1549 24.7541C52.4323 25.1338 52.5597 25.3253 52.696 25.77C52.8628 26.5045 52.8877 27.1019 52.6118 27.8187C51.7748 29.9868 48.9419 30.2689 47.9733 28.0397C47.5535 27.0735 47.6898 26.3136 48.0634 25.3628C47.5754 25.2474 46.6083 24.7627 46.1016 24.5581C45.2797 24.226 44.44 23.8622 43.6187 23.5177C43.0848 23.2939 42.7265 23.0396 42.1274 22.8768C42.286 21.3642 42.3597 19.6085 42.4611 18.0698Z" fill="white"/>
        <path d="M18.6389 18.4365C18.7266 18.5386 18.9768 22.5558 19.1777 23.0966L15.292 24.7929C14.8197 24.9991 13.9963 25.2799 13.5972 25.5282C14.1415 26.8098 13.9529 28.5552 12.7065 29.305C10.4684 30.6514 8.35605 28.2909 8.89711 26.022C9.02943 25.5639 9.2044 25.2346 9.46697 24.841C8.29593 24.654 7.41027 23.9072 7.06524 22.7659C6.83508 21.9903 6.92094 21.1551 7.30408 20.4426C8.042 19.0766 9.74579 18.7042 10.9653 19.6911C11.4523 20.0852 11.7965 20.6753 11.9676 21.2745C12.3704 21.1579 13.371 20.6945 13.807 20.5063L16.773 19.2245C17.369 18.9665 18.039 18.6601 18.6389 18.4365Z" fill="white"/>
        <path d="M24.1716 29.7577C24.8177 29.744 25.0452 30.1494 24.9653 30.7363C24.8699 31.3932 24.8527 32.0065 24.9243 32.6658C25.0026 33.3882 25.1905 33.6844 24.4047 33.907C23.892 33.7988 23.8013 34.011 23.4791 33.5274C23.4481 33.1111 23.4634 32.536 23.4632 32.1096C23.4579 31.4157 23.4615 30.7218 23.474 30.0282C23.7577 29.8673 23.8478 29.8086 24.1716 29.7577Z" fill="#F26223"/>
        <path d="M37.2626 29.7563C37.5485 29.7732 38.1621 29.8144 38.1802 30.2263C38.2276 31.3072 38.2347 32.4263 38.1755 33.5062C38.1589 33.8067 37.8048 33.8891 37.5734 33.9071C36.4744 33.9614 36.6907 33.3246 36.7749 32.5676C36.814 31.9877 36.7876 31.4046 36.7402 30.8269C36.6975 30.3051 36.6306 29.9092 37.2626 29.7563Z" fill="#F26223"/>
        <path d="M39.4229 30.3506C39.6223 30.3515 39.7437 30.4756 39.9058 30.5956C39.936 31.0389 40.0629 32.9681 39.7817 33.2347C39.6732 33.3375 39.4158 33.3239 39.2744 33.3334C39.1503 33.3352 39.0012 33.344 38.8895 33.2803C38.8143 33.2371 38.7544 33.1728 38.7343 33.0869C38.6694 32.8122 38.6436 30.7352 38.7716 30.5737C38.9126 30.3959 39.216 30.379 39.4229 30.3506Z" fill="#F26223"/>
        <path d="M22.151 30.3433C22.3799 30.3421 22.9449 30.3862 22.9511 30.6686C22.9663 31.3696 22.9436 32.127 22.9668 32.8348C22.9759 33.1133 22.8794 33.295 22.6038 33.3388C21.5724 33.4449 21.7422 32.9101 21.7432 32.116C21.746 31.612 21.7447 31.108 21.7394 30.604C21.8731 30.5021 22.0066 30.4277 22.151 30.3433Z" fill="#F26223"/>
        <path fill-rule="evenodd" clip-rule="evenodd" d="M12.5418 33.7572C12.8294 33.7346 13.1994 33.7563 13.4949 33.7949C14.0798 33.8711 15.1527 34.0611 15.6396 34.3363C15.8409 34.4498 16.6068 35.3293 16.8023 35.5474C16.9691 35.7681 17.1115 36.0217 17.202 36.2833C17.305 36.5813 17.2526 36.9329 17.3076 37.238C17.3815 37.6481 17.5697 38.033 17.5489 38.4596C17.5289 38.8681 17.3638 39.2483 17.3574 39.6571C17.3743 40.1893 17.4334 40.745 17.4599 41.2799C17.4926 41.9402 17.4323 42.5483 17.3558 43.1968C17.1921 44.5861 16.5253 45.873 15.5913 46.9008C15.462 47.0429 15.0938 47.4428 14.9322 47.5192C14.3594 47.7899 14.0244 47.6722 13.4814 48.0908L13.4482 48.1164C13.452 48.2868 13.4758 48.5021 13.4995 48.6714C13.624 49.5614 13.58 50.4262 13.5734 51.3212L13.5538 54.5216C13.5504 55.1012 13.5505 55.6757 13.5779 56.2544C13.5882 56.4772 13.3211 56.8068 13.3034 56.9573C13.7496 57.4712 12.8172 58.4919 12.3593 58.5846C11.9942 58.658 10.6086 58.5463 10.3715 58.3312C9.68398 57.7069 10.1441 55.94 10.1634 55.0947C10.1816 54.3132 10.1668 53.6744 10.1679 52.9667L10.1906 44.358C10.1865 43.5891 10.1768 42.8204 10.1619 42.0521C10.119 40.4438 10.1847 38.9085 10.2343 37.3029C10.2821 36.6187 10.3436 36.2667 10.1755 35.5956C9.9551 34.716 11.9394 33.8352 12.5418 33.7572ZM13.8132 37.7613C13.8615 38.3204 13.8478 38.872 13.8886 39.4218C13.9704 40.3684 13.9618 41.2998 13.9248 42.2481C13.9089 42.6558 14.0126 43.1523 13.9896 43.5451C13.9481 44.2541 13.9175 45.2313 13.783 45.916C13.9378 45.7439 14.0133 45.6595 14.1389 45.4681C14.6254 44.6399 14.8236 43.4702 14.7573 42.5226C14.6883 41.5347 14.7704 38.278 13.8132 37.7613Z" fill="white"/>
        <path d="M48.5061 33.7549C50.7716 33.5893 50.7766 34.5804 49.4946 35.9226C48.728 36.725 48.5455 38.6509 48.7529 39.7175C49.0374 41.1803 49.432 42.7806 50.0993 44.1421C50.3375 44.6514 50.6824 45.1391 50.8996 45.66C51.4225 47.2941 51.8984 49.9136 51.8282 51.612C51.7805 52.7646 51.3959 54.5972 50.9396 55.6395C50.8285 55.8929 50.5402 56.2339 50.3956 56.4724C50.2003 56.8167 50.1191 57.0854 49.7885 57.3376C47.9562 58.7361 47.2338 59.5684 45.5132 57.4205C44.8247 56.377 44.4181 55.3628 44.5136 54.1112C44.5805 53.1889 45.0472 52.6188 46.0024 52.6804C46.979 52.7435 46.5891 55.5986 47.3642 55.6176C47.5307 55.4899 48.0078 54.2712 48.0478 54.0182C48.1055 53.6538 48.0866 53.1509 48.0919 52.7729C48.1106 51.4221 48.0392 50.0573 47.7956 48.7273C47.7393 48.3895 47.5885 48.0473 47.5198 47.7181C47.4152 46.9818 47.0632 46.2458 46.9251 45.5439C46.6593 44.1957 46.3441 43.015 46.0039 41.6781C45.6267 40.1949 45.3215 38.1107 45.761 36.6213C45.9138 36.103 46.2018 35.7122 46.4555 35.2494C46.6226 34.9457 46.7316 34.6417 46.9112 34.3262C47.3725 34.0734 47.9864 33.837 48.5061 33.7549Z" fill="white"/>
        <path fill-rule="evenodd" clip-rule="evenodd" d="M23.043 38.0866C23.4041 38.0668 23.7667 38.0726 24.127 38.1052C25.035 38.1899 25.3216 38.2673 25.9111 38.9919C27.0195 40.3543 26.8488 42.1608 26.6826 43.7907C26.6134 44.4696 26.1704 45.142 25.6465 45.5681C25.8448 45.7751 26.1232 45.9749 26.3408 46.2038C26.7396 46.5765 26.8425 47.1329 27.0889 47.5779C27.4068 48.1515 27.5299 48.6168 27.7393 49.2263C28.0018 49.9908 28.493 50.7399 28.4688 51.5818C27.9268 52.3003 27.2411 52.4072 26.4277 52.0866C26.3032 52.0363 26.2068 51.5125 26.165 51.3699C25.966 50.7881 25.6414 50.1787 25.3711 49.6277C25.2376 49.3554 25.159 49.0902 25.0342 48.8161C25.0118 49.3412 25.346 51.1278 25.1406 51.5613C25.0022 51.6832 24.7773 51.7507 24.5869 51.78C24.0571 51.8618 23.144 52.0872 22.6748 51.7702C22.5115 51.6596 22.4188 51.2098 22.3848 51.0183C22.1993 49.9759 22.1854 48.935 22.1357 47.8825C22.0972 47.4366 22.0242 46.9926 21.9785 46.5476C21.7612 44.431 21.8695 42.3221 21.9141 40.1999C21.9241 39.7227 21.8412 38.8104 22.04 38.3777C22.1416 38.1568 22.8121 38.1074 23.043 38.0866ZM24.1475 39.4558C24.1876 40.4147 24.2012 41.3604 24.3066 42.3152C24.3424 42.6384 24.321 42.9835 24.3711 43.3074C24.4096 43.592 24.5286 43.9177 24.5918 44.2029L24.8271 43.7761C24.9115 43.5745 25.0504 43.251 25.0703 43.0329C25.1887 41.7296 25.1828 40.3681 24.1475 39.4558Z" fill="white"/>
        <path fill-rule="evenodd" clip-rule="evenodd" d="M31.3493 39.1773C31.7174 39.1407 31.9972 39.3113 32.2075 39.6116C32.6168 40.1206 32.695 40.8966 32.9314 41.4455C33.3548 42.4297 33.3673 43.2245 33.4517 44.2688C33.4819 44.6409 33.7088 45.1591 33.7639 45.5538C33.8392 46.0898 33.8744 46.6376 33.9328 47.1766C34.1272 48.5056 34.39 49.4792 34.1862 50.8444C33.8115 51.1418 33.133 51.4198 32.669 51.137C32.4414 50.9816 32.4755 50.6581 32.4292 50.4463C32.3044 49.8794 32.13 49.3885 32.0325 48.8084C31.7579 48.7583 31.4816 48.7117 31.2061 48.6666L31.1261 48.6727C31.0767 48.8217 31.1049 49.0745 31.0688 49.2292C30.8466 50.172 31.0414 51.2324 30.7732 52.1429C30.2408 52.3032 29.8665 52.3362 29.351 52.1143C29.3194 51.6325 29.3101 50.9027 29.3359 50.407C29.4699 47.834 29.6243 45.2485 30.0342 42.7018C30.2304 41.4835 30.1891 40.466 30.7461 39.3386C30.9464 39.2826 31.1479 39.2282 31.3493 39.1773ZM31.5725 44.2025C31.515 44.4403 31.3639 45.1017 31.3704 45.32C31.3935 46.0828 31.3286 46.7124 31.1985 47.4616L31.4368 47.4148C31.5896 47.3995 31.7536 47.3803 31.9058 47.3711C31.8442 46.5476 31.7986 45.763 31.6464 44.9475C31.6023 44.712 31.6172 44.4415 31.5725 44.2025Z" fill="white"/>
        <path d="M37.3844 37.8197C37.6558 37.8076 37.9868 37.8046 38.2546 37.8502C39.0247 37.988 39.8033 37.8828 40.5574 38.1154C41.2833 38.3394 41.4993 38.3059 41.4878 39.1006C40.4333 39.735 40.2306 39.593 39.1017 39.7359C39.0191 40.4123 39.1056 40.7892 39.1343 41.4541C39.1645 42.1477 39.1728 42.9027 39.1376 43.5984C39.1242 43.8615 39.0807 44.1841 39.0194 44.4416C38.966 44.6653 38.8736 44.9186 38.8279 45.1415C38.793 45.313 38.8614 45.6028 38.8128 45.7826C38.7168 46.1376 38.5497 46.4585 38.5035 46.8271C38.4072 47.5977 38.4016 48.3014 38.4001 49.0715C38.3995 49.5014 38.3136 50.0197 38.3186 50.4733C38.3231 50.8958 38.3539 51.3382 38.3239 51.7559C38.3165 51.8472 38.3112 51.9592 38.2505 52.0327C38.153 52.1509 37.9714 52.1746 37.83 52.19C37.5014 52.2256 36.4754 52.2816 36.257 52.03C36.1003 51.8493 36.0463 48.9951 36.0635 48.5583C36.0843 48.0431 36.1832 47.5302 36.1755 47.0137C36.1607 45.9841 36.0268 44.9658 36.06 43.932C36.0739 43.495 36.1174 43.0585 36.1382 42.6215C36.1619 42.1187 36.1586 41.6164 36.1927 41.1139C36.2354 40.4876 36.3216 39.8633 36.3228 39.2345C36.1755 39.2064 36.0084 39.1691 35.8668 39.1391C35.1228 38.9821 34.1714 38.4176 35.4952 38.0665C36.1545 37.8914 36.7083 37.86 37.3844 37.8197Z" fill="white"/>
        <path d="M43.8415 41.0733C45.6501 40.9844 44.7642 42.0126 43.64 42.1456C43.3126 42.1844 42.9982 42.1675 42.6679 42.1678C42.7692 42.5281 42.9129 42.8072 43.0403 43.1492C43.0676 43.2223 43.0551 43.5246 43.0951 43.6955C43.2696 43.9062 44.2667 43.809 44.6157 43.8629C44.6273 44.073 44.6625 44.2208 44.5511 44.4046C44.3529 44.7314 43.6456 44.8499 43.2776 44.934C43.3597 45.4469 43.467 45.9939 43.4741 46.5118C43.48 46.9524 43.3985 47.4084 43.4178 47.8508C43.4486 48.1909 43.5645 48.4733 43.5713 48.8208C43.5849 49.4937 43.3034 50.1482 43.6539 50.7627C44.1088 50.8543 44.6101 50.8457 45.0664 50.9432C45.3173 50.9968 45.5336 51.1553 45.4483 51.4383C45.405 51.5808 45.2726 51.6353 45.152 51.7014C43.888 52.3959 42.5138 52.5322 41.2391 51.7983C41.1751 51.7574 41.0791 51.6934 41.0611 51.6125C40.9583 51.1524 40.9307 50.603 40.886 50.1325C40.8012 49.2407 40.744 48.3467 40.7141 47.4513C40.6898 46.6813 40.694 45.9702 40.5914 45.1995C40.55 44.8866 40.6406 44.3951 40.6196 44.0609C40.587 43.5151 40.5731 42.9302 40.5277 42.39C40.5129 42.2129 40.3067 41.7124 40.483 41.6022C40.8448 41.3764 41.723 41.3628 42.1162 41.3269C42.7307 41.2709 43.2617 41.1853 43.8415 41.0733Z" fill="white"/>
        <path d="M18.9701 40.0947C19.3203 40.122 19.6984 40.1484 20.0207 40.2998C20.1276 40.3498 20.2315 40.4236 20.2673 40.5415C20.3189 40.7119 20.3183 40.9143 20.3475 41.0918C20.4134 41.4921 20.5249 41.876 20.5501 42.2838C20.5874 42.8885 20.5508 43.5092 20.5452 44.1151C20.5352 45.2147 20.532 46.3208 20.5599 47.42C20.5718 47.8843 20.6669 48.3474 20.7047 48.8105C20.7291 49.1107 20.7008 49.4082 20.713 49.7077C20.7262 50.0322 20.9135 51.8013 20.7905 51.9714C20.6751 52.1311 20.2724 52.148 20.096 52.1714C19.4536 52.2508 19.3113 52.2683 18.6838 52.143C18.2675 51.4955 18.4413 50.2864 18.3891 49.5287C18.3619 49.135 18.2993 48.7222 18.2864 48.3326C18.27 47.8387 18.3645 47.3131 18.3517 46.8153C18.3438 46.2941 18.2518 45.7732 18.2489 45.252C18.2424 44.082 18.2455 42.9229 18.3232 41.754C18.3472 41.3913 18.1525 40.8236 18.3374 40.4903C18.4472 40.2924 18.7544 40.1389 18.9701 40.0947Z" fill="white"/>
        <path d="M36.3201 54.3146C36.7441 54.2586 36.9861 54.2773 37.2267 54.6536C37.2783 55.4799 37.2075 56.3919 37.2457 57.2367C37.3233 57.3338 37.3811 57.4248 37.4963 57.4559C37.6006 57.309 37.5488 56.6672 37.5464 56.4627C37.5443 55.9522 37.547 55.442 37.5538 54.9318C37.5678 54.317 37.8113 54.3795 38.3429 54.402C38.4661 54.4761 38.5814 54.5679 38.6966 54.6547C38.7212 55.0476 38.7399 55.4408 38.7529 55.8346C38.758 56.2704 38.7793 57.8035 38.6679 58.1075C38.6051 58.279 38.427 58.3886 38.267 58.4574C37.8481 58.6369 37.1547 58.7504 36.7289 58.5581C36.4309 58.423 36.2392 58.1383 36.1275 57.8402C36.0602 57.6604 36.0223 57.4731 36.0018 57.2823C35.9612 56.9018 35.9144 54.7448 36.0377 54.4974C36.0949 54.3827 36.2081 54.3561 36.3201 54.3146Z" fill="#F26223"/>
        <path fill-rule="evenodd" clip-rule="evenodd" d="M39.1493 54.2279C39.7415 54.2015 40.4132 54.0557 40.7314 54.6263C40.9509 55.0213 41.0332 55.6043 40.8788 56.0375C40.8188 56.2059 40.61 56.3944 40.5634 56.5941C40.7041 56.8913 40.8597 56.844 41.0878 57.0179C41.4552 57.2988 41.4331 58.2735 41.1894 58.6166C40.7838 58.9736 40.5086 59.0026 39.9862 58.9359C39.7139 58.9012 39.2886 58.9254 39.0575 58.7797C38.8812 58.5077 38.9743 55.6556 38.9286 55.1303C38.9035 54.8423 38.8969 54.4252 39.1493 54.2279ZM40.0028 57.5795C39.9972 57.704 39.978 57.7987 40.0321 57.9076C40.1418 57.9921 40.2042 57.982 40.3466 57.974C40.3655 57.847 40.3761 57.8186 40.3525 57.6957C40.2411 57.5666 40.1705 57.5874 40.0028 57.5795ZM39.58 55.1801C39.5649 55.3085 39.5302 55.4573 39.5839 55.5678C39.6898 55.6303 39.6733 55.6075 39.8202 55.6019C39.8412 55.4856 39.8707 55.4022 39.8339 55.2924C39.7532 55.207 39.7059 55.2007 39.58 55.1801Z" fill="#F26223"/>
        <path d="M25.0018 54.2694C25.321 54.2463 25.5894 54.2504 25.9075 54.2552C26.1597 55.0741 26.1248 55.79 26.4974 56.488C26.6638 56.011 26.6366 55.8202 26.6993 55.3319C26.7399 54.9923 26.8068 54.6561 26.8996 54.3266C27.1641 54.2898 27.3049 54.2901 27.5749 54.2922C27.6044 54.9568 27.5397 56.0232 27.4883 56.6883C27.4616 57.0391 27.4268 57.3334 27.3618 57.6907C27.247 58.3286 27.0703 59.0219 26.2678 58.9174C25.7564 58.851 25.3952 58.4427 25.3496 57.9526C25.2597 56.9861 24.8726 55.192 25.0018 54.2694Z" fill="#F26223"/>
        <path fill-rule="evenodd" clip-rule="evenodd" d="M21.6466 54.2899C22.1839 54.2666 22.4527 54.2859 22.8761 54.6503C23.5547 55.2347 23.4211 55.6136 23.4425 56.3866C23.4685 57.3204 23.4307 57.9046 22.7628 58.62C22.486 58.8407 22.2029 58.9741 21.839 58.9354C21.7015 58.9209 21.509 58.8542 21.4308 58.7304C21.297 58.5164 21.202 54.9354 21.2931 54.6063C21.3403 54.4365 21.5032 54.3649 21.6466 54.2899ZM22.2452 55.6122C22.1555 55.8462 22.1391 56.7467 22.2472 56.9979L22.297 57.0399C22.317 57.037 22.3781 57.029 22.3947 57.0233C22.6114 56.7362 22.5276 56.2268 22.506 55.8593C22.4172 55.7639 22.354 55.6851 22.2452 55.6122Z" fill="#F26223"/>
        <path d="M31.9589 53.9656C32.131 53.951 32.5331 53.933 32.689 53.9768C33.4303 54.1848 33.355 55.1238 33.3177 55.7223C33.3044 55.935 33.1233 56.3804 32.8555 56.2775C32.2374 56.0405 32.6309 54.9466 32.4137 54.5919L32.353 54.5777L32.2676 54.6364C32.1894 54.7724 32.1734 56.0156 32.2137 56.2058C32.3358 56.7821 31.9379 57.9756 32.7959 57.7798C32.8303 57.6266 32.8709 57.5012 32.918 57.3525C33.4611 57.3208 33.4211 57.3682 33.3672 57.8858C33.3402 58.0606 33.3115 58.434 33.2401 58.5919C33.1198 58.8994 32.225 58.9972 31.9687 58.8514C30.9405 58.2476 31.2048 56.7937 31.2762 55.807C31.3207 55.1904 31.2505 54.226 31.9589 53.9656Z" fill="#F26223"/>
        <path d="M28.0897 54.1731C28.4434 54.1634 29.2278 54.0771 29.464 54.2979C29.4974 54.3957 29.4933 54.3456 29.4654 54.454C29.3354 54.5906 29.0872 54.5699 28.8912 54.5803C28.8905 54.8164 28.9115 54.9995 28.9365 55.2354C28.9446 55.2383 28.9528 55.2413 28.961 55.2443C29.1823 55.3957 29.5098 55.246 29.6674 55.4656C29.6867 55.5714 29.6449 55.6383 29.6035 55.7402L29.1888 55.8128C29.1668 55.9616 29.1755 56.0887 29.1768 56.2374C29.1829 56.9145 29.2088 57.5959 29.1946 58.2724C29.4118 58.2988 29.6293 58.3236 29.847 58.3468C30.1009 58.4422 30.1421 58.6466 29.916 58.8007C29.7353 58.9263 29.524 58.9355 29.3097 58.9426C28.9565 58.9545 28.5921 58.9992 28.2414 58.9316C28.139 58.9118 28.01 58.8736 27.9592 58.7731C27.8676 58.5924 27.8285 58.3865 27.8027 58.1868C27.7897 57.6694 27.6806 54.5788 27.7886 54.2371C27.8744 54.1755 27.9811 54.1811 28.0897 54.1731Z" fill="#F26223"/>
        <path d="M34.2137 54.2061L34.7286 54.2339C34.9017 54.7868 34.9304 54.9382 34.9867 55.5035C35.0643 56.2828 34.867 57.5874 35.1512 58.268C35.4534 58.3077 35.7559 58.3254 35.9106 58.6357C35.907 58.9216 35.5064 58.9003 35.296 58.9035C34.9885 58.8988 33.9924 59.0128 33.7974 58.7877C33.587 58.5447 33.5927 55.1293 33.5938 54.6167C33.8315 54.3489 33.8199 54.2218 34.2137 54.2061Z" fill="#F26223"/>
        <path d="M24.0484 54.2308C24.2343 54.1893 24.5145 54.2112 24.6442 54.3671C24.6913 54.4053 24.6962 54.5478 24.699 54.6106C24.7515 55.8011 24.764 56.9925 24.8295 58.1831C24.8368 58.3155 24.8373 58.4491 24.8221 58.5813C24.7309 58.7472 24.6168 58.7798 24.4406 58.8548C24.0834 58.9549 23.9309 58.8121 23.7423 58.5197C23.6627 57.538 23.7673 56.5054 23.7253 55.5185C23.7092 55.1404 23.6794 54.6746 23.7717 54.3072C23.8412 54.2509 23.9555 54.2453 24.0484 54.2308Z" fill="#F26223"/>
    </g>
    <path fill-rule="evenodd" clip-rule="evenodd" d="M74.774 4.48235C75.6084 4.43043 76.6782 4.48098 77.5354 4.56979C79.2315 4.74535 82.3457 5.18315 83.7585 5.81774C84.3426 6.07938 86.5669 8.1097 87.1327 8.61111C87.6165 9.12001 88.0283 9.70403 88.2908 10.3072C88.5899 10.9944 88.438 11.8054 88.5975 12.509C88.8121 13.4544 89.3562 14.3411 89.2959 15.3248C89.2382 16.2675 88.7581 17.1446 88.74 18.0879C88.7891 19.3155 88.9617 20.5957 89.0386 21.8294C89.1334 23.3521 88.9583 24.7525 88.7365 26.2479C88.2617 29.451 86.3271 32.4163 83.6177 34.786C83.2432 35.1133 82.1765 36.0356 81.7075 36.2118C80.045 36.8368 79.074 36.5636 77.4983 37.5289L77.4018 37.589C77.4129 37.9824 77.481 38.4798 77.5499 38.8705C77.9113 40.9226 77.785 42.9153 77.766 44.9789L77.7056 52.3553C77.6959 53.6921 77.6994 55.0167 77.779 56.3515C77.8095 56.8659 77.0302 57.6274 76.9806 57.9738C78.2753 59.159 75.569 61.5102 74.2411 61.7228C73.1821 61.8922 69.162 61.6375 68.4748 61.1415C66.4804 59.7022 67.8158 55.6281 67.8717 53.6791C67.9244 51.8771 67.8837 50.4042 67.8869 48.7722L67.9513 28.9249C67.9395 27.1516 67.9118 25.3789 67.8685 23.6069C67.7441 19.899 67.9341 16.3603 68.078 12.6585C68.2168 11.0812 68.3956 10.2696 67.9078 8.72236C67.2684 6.69354 73.0295 4.66067 74.774 4.48235ZM78.4577 13.7167C78.5978 15.0057 78.5614 16.2763 78.6797 17.5441C78.917 19.7267 78.8908 21.8738 78.7833 24.0605C78.7372 25.0005 79.038 26.144 78.9712 27.0498C78.8507 28.6845 78.7636 30.9381 78.3732 32.5167C78.8225 32.1199 79.04 31.9244 79.4046 31.4825C80.8156 29.5732 81.3914 26.879 81.1992 24.6944C80.9988 22.4183 81.2361 14.9067 78.4577 13.7167Z" fill="white"/>
    <path d="M94.9177 13.5103C96.2462 13.6137 97.6807 13.7137 98.9034 14.2881C99.3089 14.4781 99.7031 14.758 99.8388 15.2053C100.034 15.8517 100.032 16.6194 100.143 17.2927C100.393 18.8113 100.816 20.2681 100.912 21.8148C101.053 24.109 100.914 26.464 100.893 28.7627C100.855 32.9341 100.843 37.1302 100.949 41.3005C100.994 43.0619 101.355 44.8188 101.498 46.5757C101.591 47.7144 101.483 48.8429 101.53 49.9794C101.58 51.2102 102.29 57.922 101.824 58.5672C101.386 59.1731 99.8581 59.2371 99.1891 59.3259C96.7518 59.6272 96.2119 59.6935 93.8313 59.218C92.2522 56.762 92.9116 52.1747 92.7132 49.3004C92.6102 47.8065 92.3727 46.2407 92.3237 44.7626C92.2616 42.8888 92.6202 40.8947 92.5715 39.0063C92.5416 37.029 92.1925 35.0529 92.1814 33.0757C92.1567 28.6368 92.1687 24.2394 92.4632 19.805C92.5546 18.4292 91.8157 16.2755 92.5172 15.0109C92.9337 14.26 94.0992 13.6777 94.9177 13.5103Z" fill="white"/>
    <path fill-rule="evenodd" clip-rule="evenodd" d="M110.204 2.08975C111.681 2.00856 113.163 2.03401 114.636 2.16731C118.351 2.51391 119.523 2.83009 121.935 5.79435C126.468 11.3666 125.769 18.7556 125.089 25.4223C124.806 28.1987 122.993 30.9475 120.851 32.6902C121.662 33.5373 122.799 34.3552 123.69 35.292C125.322 36.8165 125.743 39.0925 126.751 40.9127C128.051 43.259 128.555 45.1605 129.412 47.6533C130.486 50.7812 132.496 53.8462 132.396 57.2903C130.18 60.2292 127.376 60.6667 124.049 59.3554C123.538 59.1539 123.144 57.0067 122.973 56.4226C122.159 54.0425 120.83 51.5497 119.724 49.2956C119.178 48.1819 118.858 47.0995 118.348 45.9785C118.256 48.126 119.624 55.4315 118.784 57.2045C118.218 57.7037 117.298 57.9789 116.519 58.0989C114.352 58.4333 110.618 59.3554 108.698 58.0587C108.03 57.6066 107.651 55.7658 107.511 54.9829C106.753 50.7194 106.694 46.4632 106.491 42.1586C106.334 40.3347 106.038 38.5194 105.851 36.6991C104.962 28.0413 105.404 19.4149 105.586 10.734C105.627 8.78167 105.288 5.05023 106.102 3.28087C106.517 2.37684 109.262 2.17458 110.204 2.08975ZM114.721 7.68976C114.885 11.6126 114.941 15.4811 115.372 19.387C115.518 20.7092 115.431 22.1188 115.636 23.4434C115.794 24.608 116.28 25.9398 116.538 27.1068L117.501 25.3606C117.846 24.5354 118.415 23.2131 118.496 22.3212C118.98 16.99 118.956 11.4212 114.721 7.68976Z" fill="white"/>
    <path fill-rule="evenodd" clip-rule="evenodd" d="M141.807 2.40096C143.445 2.23751 144.69 2.99263 145.625 4.32924C147.447 6.59381 147.796 10.0434 148.848 12.486C150.733 16.8662 150.785 20.4043 151.16 25.0522C151.295 26.7077 152.303 29.0104 152.548 30.7662C152.883 33.1507 153.044 35.5867 153.304 37.9844C154.168 43.8976 155.333 48.2291 154.427 54.3032C152.759 55.6266 149.742 56.863 147.678 55.6029C146.664 54.9108 146.817 53.4714 146.61 52.5289C146.055 50.0074 145.279 47.8272 144.845 45.2463C143.623 45.0235 142.399 44.8113 141.173 44.611L140.815 44.6437C140.595 45.3067 140.719 46.4285 140.558 47.1166C139.57 51.3109 140.436 56.0275 139.243 60.0782C136.874 60.7913 135.213 60.9363 132.92 59.949C132.779 57.8057 132.734 54.5617 132.849 52.3564C133.445 40.9096 134.133 29.4071 135.957 18.0776C136.829 12.6574 136.647 8.13091 139.125 3.1154C140.016 2.86629 140.91 2.62767 141.807 2.40096ZM142.802 24.7527C142.546 25.8099 141.875 28.7522 141.904 29.7237C142.007 33.1179 141.72 35.9189 141.141 39.2525L142.196 39.0468C142.877 38.9783 143.609 38.89 144.287 38.8491C144.013 35.1847 143.809 31.6943 143.132 28.0655C142.935 27.0175 143.001 25.8165 142.802 24.7527Z" fill="white"/>
    <path d="M166.437 1.99558C167.552 1.94566 168.912 1.93347 170.012 2.12097C173.177 2.6871 176.376 2.2549 179.475 3.21064C182.458 4.13107 183.345 3.99349 183.298 7.25882C178.965 9.86549 178.132 9.2823 173.493 9.86913C173.153 12.6487 173.509 14.1973 173.627 16.9294C173.751 19.7796 173.785 22.8818 173.641 25.7404C173.586 26.8216 173.407 28.1474 173.155 29.2055C172.936 30.1247 172.556 31.1656 172.368 32.0812C172.225 32.7861 172.506 33.9768 172.306 34.7159C171.912 36.1744 171.225 37.493 171.035 39.0075C170.639 42.1743 170.616 45.0658 170.61 48.2301C170.608 49.9967 170.255 52.1261 170.275 53.9901C170.294 55.7262 170.42 57.5439 170.297 59.2606C170.267 59.6356 170.245 60.0958 169.995 60.3978C169.595 60.8835 168.848 60.981 168.268 61.0443C166.917 61.1904 162.701 61.4205 161.804 60.3868C161.16 59.6441 160.938 47.916 161.009 46.1214C161.094 44.0041 161.501 41.8967 161.469 39.7746C161.408 35.5437 160.858 31.3592 160.994 27.1113C161.052 25.3155 161.231 23.5222 161.316 21.7264C161.413 19.6603 161.4 17.5966 161.54 15.5317C161.715 12.9579 162.069 10.3927 162.074 7.80913C161.469 7.69347 160.783 7.54005 160.201 7.41709C157.143 6.77181 153.234 4.45248 158.674 3.00975C161.383 2.29021 163.658 2.16116 166.437 1.99558Z" fill="white"/>
    <path d="M200.371 5.69212C209.098 5.70093 204.585 10.4362 199.142 10.8052C197.556 10.913 196.047 10.7558 194.457 10.6775C194.858 12.4363 195.482 13.8145 196.013 15.4912C196.126 15.8501 195.993 17.3019 196.145 18.1345C196.934 19.1908 201.757 18.9637 203.424 19.3075C203.429 20.3216 203.563 21.0418 202.982 21.8992C201.949 23.4245 198.516 23.8243 196.724 24.1405C196.995 26.6292 197.38 29.288 197.289 31.7829C197.211 33.9052 196.709 36.0806 196.695 38.2147C196.761 39.8595 197.25 41.2467 197.199 42.9214C197.102 46.1638 195.589 49.2465 197.128 52.2892C199.295 52.8398 201.711 52.9195 203.884 53.4989C205.079 53.8176 206.082 54.6329 205.603 55.9744C205.36 56.65 204.709 56.8805 204.113 57.1694C197.861 60.2074 191.213 60.5317 185.254 56.691C184.956 56.4788 184.509 56.1475 184.442 55.7538C184.058 53.5139 184.058 50.8629 183.956 48.5872C183.763 44.2736 183.704 39.9567 183.776 35.6392C183.845 31.9264 184.037 28.5044 183.729 24.7698C183.605 23.2537 184.16 20.9094 184.14 19.2954C184.115 16.6603 184.189 13.8415 184.101 11.2304C184.073 10.3739 183.201 7.91512 184.076 7.42711C185.872 6.42763 190.103 6.57408 192.004 6.49644C194.976 6.37525 197.552 6.09125 200.371 5.69212Z" fill="white"/>
    <path d="M219.944 4.50027C228.118 4.14469 228.136 6.27246 223.51 9.15403C220.744 10.8766 220.086 15.0113 220.834 17.3013C221.861 20.4417 223.285 23.8773 225.692 26.8002C226.552 27.8937 227.796 28.9407 228.58 30.059C230.467 33.5671 232.184 39.1909 231.93 42.8371C231.758 45.3116 230.371 49.2459 228.724 51.4837C228.323 52.0276 227.283 52.7597 226.761 53.2718C226.057 54.0109 225.764 54.5879 224.571 55.1292C217.96 58.1316 215.353 59.9185 209.145 55.3073C206.66 53.067 205.194 50.8896 205.538 48.2027C205.779 46.2225 207.463 44.9986 210.91 45.1309C214.434 45.2664 213.027 51.3959 215.823 51.4366C216.424 51.1625 218.146 48.5462 218.29 48.0029C218.498 47.2205 218.43 46.141 218.449 45.3294C218.517 42.4294 218.259 39.4995 217.38 36.644C217.177 35.9188 216.633 35.1841 216.385 34.4774C216.007 32.8967 214.737 31.3166 214.239 29.8097C213.28 26.9154 212.143 24.3805 210.915 21.5104C209.554 18.326 208.453 13.8517 210.039 10.654C210.59 9.54141 211.629 8.70239 212.545 7.70879C213.148 7.05679 213.541 6.40414 214.189 5.72669C215.853 5.18409 218.069 4.67647 219.944 4.50027Z" fill="white"/>
    <path d="M413.117 4.50022C417.722 3.81101 420.351 4.04072 422.964 8.67192C423.524 18.8423 422.755 30.0666 423.17 40.4631C424.014 41.6592 424.641 42.7787 425.893 43.1616C427.026 41.3529 426.463 33.4543 426.437 30.9381C426.414 24.655 426.443 18.3756 426.517 12.0961C426.668 4.52937 429.314 5.29881 435.087 5.57595C436.426 6.4876 437.678 7.61806 438.929 8.68652C439.196 13.5219 439.399 18.361 439.541 23.2073C439.596 28.5715 439.827 47.4391 438.617 51.1805C437.935 53.2919 436.001 54.6411 434.263 55.4871C429.713 57.6969 422.182 59.0936 417.558 56.727C414.321 55.0641 412.239 51.5597 411.025 47.8912C410.295 45.6777 409.883 43.3731 409.661 41.0247C409.22 36.3424 408.712 9.79511 410.05 6.75019C410.671 5.33895 411.901 5.01074 413.117 4.50022Z" fill="#F26223"/>
    <path fill-rule="evenodd" clip-rule="evenodd" d="M443.84 3.4357C450.273 3.11112 457.569 1.31398 461.025 8.34092C463.409 13.2018 464.311 20.3676 462.634 25.6988C461.984 27.7736 459.709 30.0962 459.204 32.5575C460.732 36.2151 462.418 35.6285 464.896 37.7691C468.889 41.2224 468.655 53.2263 466.007 57.4493C461.601 61.8434 458.608 62.1977 452.935 61.3772C449.977 60.9506 445.362 61.2418 442.852 59.4476C440.937 56.0986 441.944 21.0062 441.449 14.5402C441.175 10.9956 441.099 5.86435 443.84 3.4357ZM453.115 44.6862C453.054 46.2249 452.848 47.3884 453.44 48.7339C454.633 49.7768 455.306 49.6461 456.857 49.5476C457.063 47.9796 457.183 47.6326 456.925 46.1156C455.712 44.5221 454.943 44.7846 453.115 44.6862ZM448.529 15.1486C448.365 16.7349 447.982 18.566 448.567 19.9298C449.723 20.7029 449.539 20.4253 451.142 20.356C451.37 18.9193 451.689 17.8908 451.287 16.5343C450.409 15.4805 449.9 15.4039 448.529 15.1486Z" fill="#F26223"/>
    <path d="M290.188 3.94564C293.655 3.6612 296.57 3.71226 300.025 3.77061C302.764 13.8498 302.385 22.66 306.431 31.2515C308.239 25.3804 307.943 23.032 308.624 17.0224C309.065 12.8434 309.793 8.70449 310.8 4.64946C313.673 4.19728 315.202 4.20091 318.135 4.22644C318.455 12.4058 317.752 25.5299 317.194 33.7166C316.904 38.0342 316.526 41.6552 315.82 46.053C314.574 53.9042 312.654 62.4373 303.938 61.15C298.383 60.3332 294.46 55.3082 293.965 49.2767C292.989 37.3814 288.785 15.3012 290.188 3.94564Z" fill="#F26223"/>
    <path fill-rule="evenodd" clip-rule="evenodd" d="M253.744 4.20183C259.582 3.91375 262.499 4.14363 267.1 8.62881C274.474 15.8236 273.02 20.4876 273.253 30.0052C273.535 41.4992 273.126 48.6869 265.869 57.4934C262.861 60.2101 259.787 61.8542 255.833 61.3765C254.339 61.1978 252.255 60.3741 251.406 58.8499C249.952 56.2426 248.922 12.1486 249.912 8.09641C250.424 6.0034 252.185 5.12434 253.744 4.20183ZM260.252 20.4761C259.277 23.3569 259.09 34.4432 260.265 37.5318L260.809 38.0424C261.025 38.0059 261.687 37.9106 261.868 37.8413C264.224 34.3077 263.317 28.0354 263.082 23.5101C262.118 22.3359 261.434 21.3732 260.252 20.4761Z" fill="#F26223"/>
    <path d="M365.75 0.201006C367.62 0.0223218 371.987 -0.20012 373.679 0.339579C381.731 2.8995 380.914 14.4556 380.508 21.8218C380.363 24.44 378.397 29.9209 375.488 28.6555C368.775 25.7382 373.049 12.2749 370.69 7.90995L370.03 7.73492L369.103 8.45694C368.254 10.1307 368.08 25.4319 368.518 27.773C369.843 34.8657 365.522 49.5542 374.841 47.1438C375.214 45.2585 375.655 43.716 376.167 41.8854C382.066 41.4952 381.631 42.0787 381.046 48.4493C380.753 50.6008 380.441 55.1955 379.665 57.1392C378.358 60.9244 368.64 62.1278 365.856 60.3336C354.689 52.9018 357.56 35.0079 358.336 22.8647C358.818 15.2761 358.056 3.40638 365.75 0.201006Z" fill="#F26223"/>
    <path d="M323.124 5.68102C326.354 5.57441 333.517 4.63436 335.675 7.041C335.98 8.10703 335.942 7.5611 335.687 8.74342C334.501 10.2326 332.233 10.0065 330.443 10.1196C330.437 12.6942 330.629 14.6906 330.857 17.262C330.931 17.2943 331.006 17.3266 331.08 17.3589C333.102 19.0096 336.093 17.3783 337.533 19.772C337.708 20.9253 337.327 21.6553 336.948 22.7666L333.162 23.558C332.96 25.1797 333.04 26.5655 333.052 28.1872C333.108 35.5686 333.344 42.9985 333.214 50.3735C335.198 50.661 337.184 50.9324 339.172 51.1844C341.491 52.2245 341.868 54.4535 339.803 56.1333C338.152 57.503 336.223 57.6031 334.265 57.6807C331.039 57.8099 327.712 58.2977 324.509 57.5612C323.574 57.3447 322.396 56.928 321.932 55.8329C321.095 53.8624 320.738 51.6172 320.502 49.4399C320.384 43.7997 319.387 10.1034 320.373 6.37879C321.157 5.70687 322.132 5.76824 323.124 5.68102Z" fill="#F26223"/>
    <path d="M390.24 3.16211L395.833 3.50491C397.712 10.3095 398.024 12.1729 398.636 19.1306C399.479 28.7212 397.336 44.7773 400.422 53.1535C403.704 53.6422 406.99 53.8609 408.67 57.6789C408.631 61.1979 404.28 60.9354 401.996 60.9755C398.655 60.9171 387.836 62.3211 385.718 59.5496C383.434 56.5594 383.495 14.5249 383.508 8.21631C386.089 4.91977 385.963 3.35538 390.24 3.16211Z" fill="#F26223"/>
    <path d="M280.236 16.3478C282.16 15.952 285.06 16.1612 286.401 17.6482C286.888 18.0129 286.939 19.3726 286.968 19.9719C287.512 31.3308 287.641 42.698 288.318 54.0568C288.394 55.3205 288.399 56.5955 288.242 57.8563C287.298 59.4394 286.117 59.7504 284.295 60.4656C280.599 61.4211 279.021 60.0585 277.069 57.2683C276.246 47.9025 277.328 38.0505 276.893 28.6338C276.726 25.0266 276.418 20.5826 277.374 17.0771C278.092 16.54 279.276 16.4863 280.236 16.3478Z" fill="#F26223"/>
    <defs>
        <clipPath id="clip0_310_430">
            <rect width="60.6811" height="60.6811" fill="white"/>
        </clipPath>
    </defs>
</svg>
